<svg width="636" height="636" viewBox="0 0 636 636" fill="none" xmlns="http://www.w3.org/2000/svg">
<path fill-rule="evenodd" clip-rule="evenodd" d="M317.5 0C334.897 -7.60446e-07 349 14.103 349 31.5V56.5321C349 65.6102 355.778 73.1961 364.695 74.8987C397.947 81.2475 428.838 94.2496 455.93 112.467C463.432 117.511 473.537 116.914 479.93 110.522L497.398 93.0537C509.7 80.7524 529.645 80.7523 541.946 93.0537C554.248 105.355 554.248 125.3 541.946 137.602L524.671 154.877C518.25 161.297 517.679 171.456 522.786 178.964C541.224 206.07 554.422 237.027 560.922 270.379C562.653 279.262 570.225 286 579.275 286H604.5C621.897 286 636 300.103 636 317.5C636 334.897 621.897 349 604.5 349H579.467C570.389 349 562.803 355.778 561.1 364.695C554.665 398.4 541.394 429.679 522.785 457.035C517.678 464.543 518.249 474.702 524.669 481.122L541.773 498.227C554.075 510.528 554.075 530.472 541.773 542.773C529.472 555.075 509.528 555.075 497.227 542.773L479.93 525.477C473.537 519.085 463.432 518.488 455.93 523.532C428.838 541.75 397.947 554.752 364.695 561.1C355.778 562.803 349 570.389 349 579.467V604.5C349 621.897 334.897 636 317.5 636C300.103 636 286 621.897 286 604.5V579.275C286 570.225 279.262 562.653 270.379 560.922C237.027 554.421 206.07 541.224 178.964 522.785C171.456 517.678 161.297 518.249 154.877 524.67L136.773 542.773C124.472 555.075 104.528 555.075 92.2266 542.773C79.925 530.472 79.925 510.528 92.2266 498.227L110.522 479.93C116.915 473.537 117.511 463.432 112.467 455.93C94.2499 428.838 81.2483 397.947 74.8996 364.695C73.1971 355.778 65.6112 349 56.5331 349H31.5C14.103 349 1.04609e-05 334.897 0 317.5C6.0331e-06 300.103 14.103 286 31.5 286H56.7251C65.7753 286 73.3469 279.262 75.0781 270.379C81.4901 237.479 94.4187 206.91 112.466 180.069C117.511 172.567 116.914 162.462 110.522 156.069L92.0537 137.602C79.7524 125.3 79.7523 105.355 92.0537 93.0537C104.355 80.7523 124.3 80.7524 136.602 93.0537L154.877 111.329C161.297 117.749 171.456 118.321 178.964 113.213C206.069 94.775 237.027 81.5774 270.379 75.0772C279.262 73.3459 286 65.7743 286 56.7241V31.5C286 14.103 300.103 7.60446e-07 317.5 0ZM300.642 242.688C286.121 228.143 263.19 226.424 246.68 238.568L246.494 238.707L246.078 239.02L245.906 239.15L150.682 312.647C132.531 326.656 129.172 352.683 143.036 370.849C156.98 389.118 183.141 392.626 201.397 378.535L255.158 337.04C262.329 331.505 272.496 332.161 278.895 338.571L332.546 392.312C347.165 406.956 370.34 408.614 386.895 396.144L484.932 322.294C503.248 308.496 506.906 282.509 493.256 264.186C479.528 245.758 453.412 241.939 434.989 255.816L378.295 298.521C371.124 303.923 361.07 303.214 354.727 296.861L300.642 242.688Z" fill="black"/>
</svg>
